<?xml version="1.0" encoding="UTF-8"?>
<svg id="Layer_1" data-name="Layer 1" xmlns="http://www.w3.org/2000/svg" viewBox="0 0 1206.52 1200">
  <path d="M956.52,0c129.69,11.2,237.25,115.29,248.03,247.74l1.97,10.96v682.61l-2.04,11.14c-10.27,129.17-115.66,234.77-243.42,245.51l-11.06,2.04H256.52l-11.05-2.04c-127.81-10.73-233.27-116.49-243.44-245.52l-2.03-11.14L.02,258.65c1.26-4.54,1.41-7.95,1.88-12.81C14.7,113.05,119.67,13.03,250.86.32l705.67-.32ZM392.98,311.75c0-45.68-37.03-82.72-82.72-82.72s-82.72,37.03-82.72,82.72,37.03,82.72,82.72,82.72,82.72-37.03,82.72-82.72ZM393.07,465.08h-165.56v506.09h165.56v-506.09ZM819.77,971.18h159.28s-.11-283.94-.11-283.94c-1.2-38.58-3.56-74.14-14.16-110.29-14.38-49.01-47.78-86.54-97.35-101.05-85.03-24.88-182.6-10.55-231.79,68.62l-.41-79.44-152.26.02v506.07s159.06.03,159.06.03l-.07-268.24c2.36-44.75,14.59-86.84,58.74-100.36,19.92-6.1,41.37-6.93,61.93-2.22,44.71,10.24,56.8,57.07,56.85,102.03l.3,268.77Z"/>
</svg>
