<?xml version="1.0" encoding="UTF-8"?>
<svg id="Layer_1" data-name="Layer 1" xmlns="http://www.w3.org/2000/svg" viewBox="1751.69 -0.01 1200 1193.52">
  <defs>
    <style>
      .cls-1 {
        fill: #fff;
      }
    </style>
  </defs>
  <path class="cls-1" d="M2703.04,0c128.99,11.14,235.97,114.66,246.69,246.4l1.96,10.9v678.92l-2.03,11.08c-10.22,128.47-115.04,233.5-242.11,244.18l-11,2.03h-689.73l-10.99-2.03c-127.12-10.67-232.01-115.86-242.12-244.19l-2.02-11.08.02-678.97c1.25-4.52,1.4-7.9,1.87-12.74,12.72-132.07,117.12-231.55,247.6-244.19l701.85-.32ZM2142.54,310.07c0-45.44-36.83-82.27-82.27-82.27s-82.27,36.83-82.27,82.27,36.83,82.27,82.27,82.27,82.27-36.83,82.27-82.27ZM2142.63,462.57h-164.66v503.36h164.66v-503.36ZM2567.02,965.93h158.42s-.11-282.41-.11-282.41c-1.19-38.37-3.54-73.74-14.09-109.69-14.3-48.75-47.52-86.08-96.82-100.5-84.57-24.75-181.62-10.49-230.54,68.25l-.41-79.01-151.44.02v503.33s158.2.03,158.2.03l-.07-266.79c2.35-44.51,14.51-86.37,58.42-99.81,19.81-6.06,41.15-6.89,61.59-2.21,44.46,10.19,56.49,56.76,56.54,101.48l.29,267.31Z"/>
</svg>
