<?xml version="1.0" encoding="UTF-8"?><svg id="Layer_2" xmlns="http://www.w3.org/2000/svg" viewBox="0 0 652.7236 124.4176"><g id="Components"><g id="d3ee2d3a-358f-46ff-a47e-2aa311119758_5"><path d="M36.918,124.299l-33.4383.1186c-1.1766.0042-3.3461-1.9408-3.1876-3.1631,2.7241-21.0108,16.59-41.4679,37.8602-43.7144l23.963-.2915c17.4253-.212,29.7283-14.4184,28.5453-32.0371,19.9816-1.2551,37.8144,12.0547,40.2148,32.7125l-40.4766.223c-8.6191.0475-15.6598,5.3188-18.8491,13.0938-6.2379,15.6517-16.5241,32.994-34.6315,33.0582Z" style="fill:#fff;"/><path d="M90.5327,45.0071l-84.3926-.1959c-2.9516-.0069-6.0516-1.8204-6.059-4.9329L0,5.4521C-.0073,2.348,2.1232-.0019,5.1951,0l55.1842.0349c22.2844,3.0251,33.3036,22.2159,30.1534,44.9722Z" style="fill:#fff;"/><path d="M221.0685,102.3163l-17.6675-25.2754-19.4392.0115-.0437,25.0355-8.0535.0949.0037-65.7761,34.656.3991c10.9156.1257,18.1821,9.2513,18.6151,18.8463.4707,10.4291-6.1196,18.7902-16.7355,20.6117l17.95,25.4363-9.2854.6162ZM209.3473,69.2596c7.6983-.1154,11.963-7.0854,11.4324-13.5051-.4777-5.779-5.3369-11.4726-12.1058-11.539l-24.718-.2424-.0348,25.6677,25.4263-.3812Z" style="fill:#fff;"/><path d="M422.0781,95.668c10.2803-.1608,18.6776-5.808,22.1679-15.7182l8.3151.354c-2.9778,13.3676-14.5179,21.8198-28.0632,22.9563-10.3643.8696-20.4119-2.6863-27.3224-9.6365-7.3754-7.4178-10.5523-17.947-9.2887-28.4993,2.2519-18.805,17.8904-31.4805,36.7032-29.77,13.1673,1.1972,24.5747,9.2148,27.7045,22.6129l-8.2101.884c-2.7615-8.8172-9.4332-14.0429-18.1619-15.4948-7.8158-1.3-15.323.6574-21.2611,5.712-5.672,4.8281-8.6604,12.3756-8.7242,20.4314-.117,14.7771,10.9801,26.4054,26.1409,26.1683Z" style="fill:#fff;"/><path d="M281.1625,101.9237l-7.7467.351-.4445-6.2323c-3.6477,4.5702-8.5527,6.5963-14.173,7.1117-14.5037,1.33-25.5468-9.4159-25.7119-23.8929-.1118-9.7992,4.6068-18.571,12.8758-22.5367,9.2439-4.4333,19.3952-3.019,26.8386,4.3478l.4241-5.8403,7.8799.3589.0577,46.3328ZM273.4381,77.0009c-.8788-9.9343-8.3962-16.1803-17.5556-15.4249-8.5008.7011-14.5784,7.7478-14.8608,16.8087-.3164,10.1551,7.0534,17.7477,16.6399,17.6443,9.9447-.1073,16.7336-8.2082,15.7765-19.0281Z" style="fill:#fff;"/><path d="M356.4453,87.9048l7.9168.4819c-2.195,9.0217-10.3132,13.9063-19.1722,14.7675-15.2373,1.4811-26.933-9.5019-26.627-24.7843.2589-12.9341,9.0849-23.4121,22.241-24.0676,7.3191-.3646,14.0526,2.2106,18.5381,7.1009,4.8752,5.3152,6.9528,12.2666,5.7007,19.9275l-38.2176.0544c.3503,8.9577,7.5925,15.2057,16.6943,14.6634,5.485-.3268,10.4209-2.2146,12.926-8.1436ZM357.3014,74.6421c-1.499-10.2902-9.0128-13.6219-16.7532-13.052-6.7258.4952-12.5922,5.681-13.595,13.2409l30.3482-.1889Z" style="fill:#fff;"/><path d="M546.256,87.962l7.7921.6823c-2.9161,9.2599-10.6577,13.6011-19.3435,14.4888-7.313.7474-14.4315-1.7319-19.4679-6.4301-5.3585-4.9987-7.601-12.4802-7.1247-20.0529.8312-13.2142,10.8789-22.4958,24.1874-22.3562,14.3219.1503,24.9907,12.4181,22.3742,27.0142l-38.4786.0794c.6766,8.9571,8.4358,15.6594,17.7846,14.547,5.2011-.3713,9.6632-2.369,12.2763-7.9725ZM547.0202,74.7791c-1.0385-8.7751-7.9636-13.6674-16.0497-13.3138-7.0033.3062-13.4673,5.3682-14.57,13.3359l30.6197-.022Z" style="fill:#fff;"/><path d="M493.6793,102.2242l-.2861-28.7148c-.0767-7.6995-6.5158-12.3589-13.5759-11.9506-8.1393.4706-13.3237,6.1441-13.3266,14.1467l-.0095,26.1776-7.8406.0489-.0065-65.1613,7.8127-.3863.0671,24.3242c4.8555-4.8648,10.924-6.7407,17.6468-6.3824,10.6476.5675,17.4118,9.0989,17.1183,19.6275l-.072,27.8965-7.5276.3741Z" style="fill:#fff;"/><path d="M631.6781,77.4433l21.0454,24.176-9.6964.3606-17.2772-19.8505c-1.0674-.8068-4.7219-.8493-5.4693-.6009l-.161,20.5993-7.7982-.0721-.0207-65.4344,7.8211-.2676.1266,37.7438c1.1641,1.3863,4.1065.2609,5.3214-1.0286l16.598-17.6168,9.9713.0562-20.461,21.9349Z" style="fill:#fff;"/><path d="M567.4982,78.0478c-.427,8.3215,4.3004,15.4014,11.449,17.2892,7.6415,2.018,15.8769-.3863,19.1187-8.4506l7.9097.8286c-2.6199,8.9956-9.2217,13.5074-17.4419,15.1067-7.7848,1.5146-15.5917-.6018-21.2114-5.6322-5.6841-5.088-8.431-12.5254-7.7796-20.5855,1.1408-14.1138,12.948-23.855,27.0169-22.1998,9.2357,1.0866,17.4326,6.5672,19.4041,15.9361l-7.7907.8718c-1.681-4.749-4.9821-7.7918-9.6474-9.0043-5.2982-1.377-10.3661-.6089-14.7991,2.7683-3.5472,2.7024-5.9411,7.4688-6.2286,13.0717Z" style="fill:#fff;"/><path d="M302.7371,95.2629l12.1693-.3525.0229,7.3239-13.4025.1869c-5.02.07-10.0986-4.386-10.1195-9.8092l-.1145-29.7106-3.2354-.6866c-.717-.1522-.5969-2.5816-.5231-3.3118l.2901-2.8687c.074-.7315,2.2043-.7532,3.5202-.762l.005-11.7362,7.6356.0324.036,11.7523,16.0099.0045.047,7.1927-16.0679.0224.0382,28.3852c.0019,1.3835,2.2214,4.3798,3.6886,4.3373Z" style="fill:#fff;"/></g></g></svg>